<?xml version="1.0" standalone="no"?><!DOCTYPE svg PUBLIC "-//W3C//DTD SVG 1.1//EN" "http://www.w3.org/Graphics/SVG/1.1/DTD/svg11.dtd"><svg t="1689521897593" class="icon" viewBox="0 0 1024 1024" version="1.1" xmlns="http://www.w3.org/2000/svg" p-id="1845" xmlns:xlink="http://www.w3.org/1999/xlink" width="200" height="200"><path d="M854.857 992H169.143C93.403 992 32 930.596 32 854.857V169.143C32 93.403 93.404 32 169.143 32h685.714C930.596 32 992 93.404 992 169.143v685.714C992 930.596 930.596 992 854.857 992z" fill="#FFEBEB" p-id="1846"></path><path d="M744.01 787H279.99c-35.35 0-64-28.65-64-64V361c0-35.35 28.65-64 64-64H744c35.35 0 64 28.65 64 64v362c0.01 35.35-28.65 64-63.99 64z" fill="#FFFFFF" p-id="1847"></path><path d="M736 876H288c-66.17 0-120-53.83-120-120V388c0-66.17 53.83-120 120-120h448c66.17 0 120 53.83 120 120v368c0 66.17-53.83 120-120 120zM288 316c-39.7 0-72 32.3-72 72v368c0 39.7 32.3 72 72 72h448c39.7 0 72-32.3 72-72V388c0-39.7-32.3-72-72-72H288z" fill="#1F4CA4" p-id="1848"></path><path d="M392 396c-13.25 0-24-10.75-24-24V172c0-13.25 10.75-24 24-24s24 10.75 24 24v200c0 13.25-10.75 24-24 24zM632 396c-13.25 0-24-10.75-24-24V172c0-13.25 10.75-24 24-24s24 10.75 24 24v200c0 13.25-10.75 24-24 24z" fill="#1F4CA4" p-id="1849"></path><path d="M376 572h-48c-8.84 0-16-7.16-16-16v-48c0-8.84 7.16-16 16-16h48c8.84 0 16 7.16 16 16v48c0 8.84-7.16 16-16 16zM536 572h-48c-8.84 0-16-7.16-16-16v-48c0-8.84 7.16-16 16-16h48c8.84 0 16 7.16 16 16v48c0 8.84-7.16 16-16 16zM696 572h-48c-8.84 0-16-7.16-16-16v-48c0-8.84 7.16-16 16-16h48c8.84 0 16 7.16 16 16v48c0 8.84-7.16 16-16 16zM376 692h-48c-8.84 0-16-7.16-16-16v-48c0-8.84 7.16-16 16-16h48c8.84 0 16 7.16 16 16v48c0 8.84-7.16 16-16 16zM536 692h-48c-8.84 0-16-7.16-16-16v-48c0-8.84 7.16-16 16-16h48c8.84 0 16 7.16 16 16v48c0 8.84-7.16 16-16 16zM696 692h-48c-8.84 0-16-7.16-16-16v-48c0-8.84 7.16-16 16-16h48c8.84 0 16 7.16 16 16v48c0 8.84-7.16 16-16 16z" fill="#FFB9B3" p-id="1850"></path></svg>